<svg xmlns="http://www.w3.org/2000/svg" width="32" height="32">
    <path style="stroke:none;fill-rule:nonzero;fill:#000;fill-opacity:1" d="M19.332 12.332a1.667 1.667 0 1 1 .002 3.334 1.667 1.667 0 0 1-.002-3.334m-6.664 0c.918 0 1.664.746 1.664 1.668A1.666 1.666 0 1 1 11 14c0-.922.746-1.668 1.668-1.668M10 18.668h12c-1.012 2.36-3.332 4-6 4s-4.988-1.64-6-4M1.332 16a5.318 5.318 0 0 1 3.816-5.105A11.96 11.96 0 0 1 16 4a12 12 0 0 1 10.867 6.895c2.2.652 3.801 2.69 3.801 5.105a5.323 5.323 0 0 1-3.8 5.105A12 12 0 0 1 16 28a11.96 11.96 0 0 1-10.852-6.895A5.318 5.318 0 0 1 1.332 16M16 6.668c-4.238 0-7.813 2.824-8.96 6.664h-.372a2.669 2.669 0 0 0 0 5.336h.371c1.149 3.84 4.723 6.664 8.961 6.664s7.813-2.824 8.96-6.664h.372a2.669 2.669 0 0 0 0-5.336h-.371C23.813 9.492 20.238 6.668 16 6.668Zm0 0"/>
</svg>
