<svg xmlns="http://www.w3.org/2000/svg" width="32" height="32">
    <path style="stroke:none;fill-rule:nonzero;fill:#000;fill-opacity:1" d="M29.332 12h-6.387l-5.84-8.746a1.326 1.326 0 0 0-2.21.012L9.055 12H2.668a1.34 1.34 0 0 0-1.336 1.332c0 .121 0 .242.055.36l3.386 12.363A2.65 2.65 0 0 0 7.332 28h17.336a2.675 2.675 0 0 0 2.57-1.945l3.387-12.364.043-.359A1.34 1.34 0 0 0 29.332 12M16 6.398 19.734 12h-7.468L16 6.398m8.668 18.934H7.332L4.414 14.668h23.188l-2.934 10.664m-8.668-8A2.68 2.68 0 0 0 13.332 20 2.68 2.68 0 0 0 16 22.668 2.68 2.68 0 0 0 18.668 20 2.68 2.68 0 0 0 16 17.332Zm0 0"/>
</svg>
