<svg xmlns="http://www.w3.org/2000/svg" width="32" height="32">
    <path style="stroke:none;fill-rule:nonzero;fill:#000;fill-opacity:1" d="M0 3c0-.55.45-1 1-1h3c.457 0 .86.313.969.758L5.78 6H29a1 1 0 0 1 .98 1.184l-3 16A.997.997 0 0 1 26 24H8a.997.997 0 0 1-.98-.816l-3-15.97L3.219 4H1c-.55 0-1-.45-1-1Zm6.203 5 2.625 14h16.344l2.625-14ZM10 24c-2.21 0-4 1.79-4 4s1.79 4 4 4 4-1.79 4-4-1.79-4-4-4Zm14 0c-2.21 0-4 1.79-4 4s1.79 4 4 4 4-1.79 4-4-1.79-4-4-4Zm-14 2a1.999 1.999 0 1 1 0 4 1.999 1.999 0 1 1 0-4Zm14 0a1.999 1.999 0 1 1 0 4 1.999 1.999 0 1 1 0-4Zm0 0"/>
</svg>
