<svg xmlns="http://www.w3.org/2000/svg" width="32" height="32">
    <path style="stroke:none;fill-rule:nonzero;fill:#000;fill-opacity:1" d="M23.547 14.934c-.309-.399-.68-.746-1.027-1.094-.895-.8-1.907-1.375-2.758-2.215-1.989-1.945-2.43-5.16-1.16-7.625-1.27.309-2.375 1-3.32 1.762-3.454 2.773-4.817 7.664-3.188 11.863.054.137.105.27.105.441 0 .293-.199.559-.465.668-.308.133-.629.051-.882-.16a.744.744 0 0 1-.184-.226c-1.508-1.907-1.746-4.641-.734-6.828-2.227 1.812-3.442 4.878-3.266 7.773.078.668.16 1.332.387 2 .183.8.547 1.602.945 2.309 1.441 2.304 3.934 3.957 6.613 4.293 2.852.359 5.907-.16 8.094-2.133C25.148 23.547 26 20 24.747 16.96l-.173-.348c-.281-.613-1.027-1.68-1.027-1.68m-4.215 8.399c-.371.32-.984.668-1.465.8-1.492.536-2.988-.21-3.867-1.093 1.586-.371 2.535-1.547 2.813-2.73.226-1.07-.2-1.95-.372-2.977-.16-.984-.132-1.824.227-2.746.254.508.52 1.016.84 1.414 1.027 1.332 2.64 1.922 2.984 3.734a2 2 0 0 1 .082.575c.04 1.09-.441 2.293-1.242 3.023Zm0 0"/>
</svg>
