<svg xmlns="http://www.w3.org/2000/svg" width="32" height="32">
    <path style="stroke:none;fill-rule:nonzero;fill:#000;fill-opacity:1" d="M15.2 30.398a.801.801 0 0 1-.387-.097c-.188-.106-4.606-2.578-8.59-6.531a.802.802 0 0 1-.008-1.133.802.802 0 0 1 1.133-.004c3.164 3.137 6.695 5.351 7.851 6.039 1.156-.688 4.692-2.906 7.856-6.04a.797.797 0 0 1 1.129.005.802.802 0 0 1-.004 1.133c-3.989 3.953-8.407 6.425-8.59 6.53a.805.805 0 0 1-.39.098ZM2.047 17.602c-.3 0-.59-.172-.727-.461C.445 15.277 0 13.414 0 11.6 0 6.97 3.77 3.2 8.398 3.2c1.57 0 3.235.59 4.692 1.656a8.805 8.805 0 0 1 2.11 2.172 8.875 8.875 0 0 1 2.109-2.172C18.766 3.79 20.434 3.2 22 3.2c4.633 0 8.398 3.77 8.398 8.403 0 1.812-.441 3.675-1.32 5.539a.8.8 0 0 1-1.062.382.798.798 0 0 1-.387-1.062c.777-1.648 1.172-3.285 1.172-4.86 0-3.75-3.051-6.8-6.801-6.8-2.727 0-5.371 2.242-6.043 4.254a.803.803 0 0 1-.758.547.803.803 0 0 1-.758-.547C13.77 7.043 11.125 4.8 8.398 4.8c-3.746 0-6.796 3.05-6.796 6.8 0 1.575.39 3.211 1.168 4.86a.8.8 0 0 1-.723 1.14Zm0 0"/>
    <path style="stroke:none;fill-rule:nonzero;fill:#000;fill-opacity:1" d="M16.824 24h-.02c-.324-.008-.91-.176-1.206-1.227l-1.946-6.933-1.293 5.246c-.254 1.027-.84 1.246-1.168 1.281-.328.035-.945-.043-1.421-.992l-.97-1.938a.86.86 0 0 0-.12-.187c-.008.008-.012.016-.02.023-.59.868-1.906 1.524-3.058 1.524H4a.799.799 0 1 1 0-1.598h1.602c.671 0 1.472-.437 1.738-.828.355-.523.875-.8 1.426-.762.597.04 1.132.446 1.464 1.114l.715 1.422 1.496-6.082c.254-1.028.77-1.25 1.16-1.254.391-.008.919.199 1.204 1.214l2.054 7.32 1.883-5.769c.328-1.008.934-1.18 1.262-1.195.332-.012.945.11 1.355 1.086l1.16 2.75c.215.515.922.984 1.481.984h2.402a.802.802 0 0 1 0 1.602H24c-1.195 0-2.492-.863-2.957-1.965l-.945-2.25-2.04 6.238C17.728 23.84 17.153 24 16.825 24Zm0 0"/>
</svg>
