<svg xmlns="http://www.w3.org/2000/svg" width="32" height="32">
    <path style="stroke:none;fill-rule:evenodd;fill:#000;fill-opacity:1" d="M15.547 1.418c-.129.047-2.66 1.98-6.399 4.89-5.699 4.434-6.195 4.833-6.32 5.079l-.137.265v7.813c0 6.504.016 7.863.079 8.105.375 1.465 1.386 2.5 2.91 2.985.238.074 1.312.082 10.082.097 6.664.012 9.93 0 10.175-.039a4.046 4.046 0 0 0 3.086-2.425c.297-.708.286-.278.286-8.723v-7.813l-.137-.265c-.125-.246-.606-.63-6.32-5.078-4.372-3.407-6.25-4.836-6.418-4.895a1.353 1.353 0 0 0-.887.004m5.8 7.094 5.321 4.136v7.106c0 7.984.027 7.422-.398 7.848-.391.39-.454.398-2.84.398h-2.098v-6.098c0-6.855.027-6.414-.398-6.836-.414-.418-.207-.398-4.934-.398s-4.52-.02-4.934.398c-.425.422-.398-.02-.398 6.836V28H8.57c-2.386 0-2.449-.008-2.84-.398-.425-.426-.398.136-.398-7.844v-7.102l5.32-4.14C12.43 7.125 14.211 5.746 16 4.375c.016 0 2.422 1.86 5.348 4.137m-2.68 14.156V28h-5.336V17.332h5.336v5.336"/>
</svg>
