<svg xmlns="http://www.w3.org/2000/svg" width="32" height="32">
    <path style="stroke:none;fill-rule:nonzero;fill:#000;fill-opacity:1" d="M10.398 2.668h11.204a7.735 7.735 0 0 1 7.73 7.73v11.204a7.73 7.73 0 0 1-7.73 7.73H10.398a7.735 7.735 0 0 1-7.73-7.73V10.398a7.73 7.73 0 0 1 7.73-7.73m-.265 2.664a4.8 4.8 0 0 0-4.801 4.8v11.735a4.8 4.8 0 0 0 4.8 4.801h11.735a4.8 4.8 0 0 0 4.801-4.8V10.132a4.8 4.8 0 0 0-4.8-4.801H10.132m12.867 2a1.667 1.667 0 1 1 0 3.336 1.667 1.667 0 1 1 0-3.336m-7 2A6.667 6.667 0 0 1 22.668 16 6.667 6.667 0 0 1 16 22.668 6.667 6.667 0 0 1 9.332 16 6.667 6.667 0 0 1 16 9.332M16 12c-2.21 0-4 1.79-4 4s1.79 4 4 4 4-1.79 4-4-1.79-4-4-4Zm0 0"/>
</svg>
