<svg xmlns="http://www.w3.org/2000/svg" width="32" height="32">
    <path style="stroke:none;fill-rule:nonzero;fill:#000;fill-opacity:1" d="M21.332 22.668H6.668V9.332h14.664L26.066 16m-2.558-8.215a2.66 2.66 0 0 0-2.176-1.117H6.668A2.673 2.673 0 0 0 4 9.332v13.336c0 1.48 1.2 2.664 2.668 2.664h14.664c.895 0 1.695-.453 2.176-1.133L29.332 16l-5.824-8.215m-5.11 2.883L20 12.266l-9.066 9.066-1.602-1.598m1.934-9.027c1.043 0 1.894.852 1.894 1.895 0 1.039-.851 1.89-1.894 1.89-1.04 0-1.891-.851-1.891-1.89 0-1.043.852-1.895 1.89-1.895m6.801 6.8a1.9 1.9 0 0 1 1.895 1.891 1.901 1.901 0 0 1-1.895 1.895 1.901 1.901 0 0 1-1.894-1.895 1.9 1.9 0 0 1 1.894-1.89Zm0 0"/>
</svg>
