<svg xmlns="http://www.w3.org/2000/svg" width="32" height="32">
    <path style="stroke:none;fill-rule:nonzero;fill:#000;fill-opacity:1" d="M25.332 4H6.668A2.664 2.664 0 0 0 4 6.668v18.664A2.664 2.664 0 0 0 6.668 28h18.664A2.664 2.664 0 0 0 28 25.332V6.668A2.664 2.664 0 0 0 25.332 4ZM12 22.668H8.637v-9.336H12Zm-1.742-11.047c-1.028 0-1.715-.684-1.715-1.598s.687-1.601 1.828-1.601c1.027 0 1.715.687 1.715 1.601 0 .915-.684 1.598-1.828 1.598ZM24 22.668h-3.258v-5.102c0-1.41-.867-1.738-1.191-1.738-.324 0-1.41.219-1.41 1.738v5.102h-3.364v-9.336h3.364v1.305c.433-.762 1.3-1.305 2.93-1.305 1.628 0 2.929 1.305 2.929 4.234Zm0 0"/>
</svg>
