<svg xmlns="http://www.w3.org/2000/svg" width="32" height="32">
    <path style="stroke:none;fill-rule:nonzero;fill:#000;fill-opacity:1" d="M28 2c1.105 0 2 .895 2 2v24c0 1.105-.895 2-2 2H4c-1.105 0-2-.895-2-2V4c0-1.105.895-2 2-2ZM4 0C1.79 0 0 1.79 0 4v24c0 2.21 1.79 4 4 4h24c2.21 0 4-1.79 4-4V4c0-2.21-1.79-4-4-4Zm0 0"/>
    <path style="stroke:none;fill-rule:nonzero;fill:#000;fill-opacity:1" d="M10.512 11.57a.467.467 0 0 0 .133.352c.09.094.218.144.347.144h1.649c.277 0 .496-.226.535-.5.18-1.312 1.078-2.27 2.683-2.27 1.371 0 2.625.688 2.625 2.337 0 1.27-.746 1.855-1.93 2.742-1.343.98-2.41 2.121-2.335 3.977l.008.433a.5.5 0 0 0 .5.492h1.62c.278 0 .5-.226.5-.5v-.21c0-1.438.548-1.856 2.02-2.973 1.219-.926 2.488-1.953 2.488-4.114 0-3.02-2.55-4.48-5.343-4.48-2.535 0-5.313 1.18-5.5 4.57Zm3.113 11.528c0 1.066.848 1.855 2.02 1.855 1.218 0 2.054-.789 2.054-1.855 0-1.106-.84-1.88-2.058-1.88-1.168 0-2.016.774-2.016 1.88Zm0 0"/>
</svg>
