<svg xmlns="http://www.w3.org/2000/svg" width="32" height="32">
    <path style="stroke:none;fill-rule:nonzero;fill:#000;fill-opacity:1" d="M16 2.668S9.332 5.332 9.332 16c0 4.133 1.016 7.668 2.227 10.441A2.673 2.673 0 0 0 14 28h4c1.055 0 2-.602 2.441-1.559A25.753 25.753 0 0 0 22.668 16C22.668 5.332 16 2.668 16 2.668m2 22.664h-4A22.73 22.73 0 0 1 12 16c0-6.188 2.535-9.066 4-10.227 1.465 1.16 4 4.04 4 10.227a22.73 22.73 0 0 1-2 9.332m8.668 4-5.148-2.066a27.657 27.657 0 0 0 2.015-6.293M10.48 27.266l-5.148 2.066 3.133-8.36a27.657 27.657 0 0 0 2.015 6.294M16 16a2.677 2.677 0 0 1-2.668-2.668A2.676 2.676 0 0 1 16 10.668c1.465 0 2.668 1.2 2.668 2.664A2.677 2.677 0 0 1 16 16Zm0 0"/>
</svg>
