<svg xmlns="http://www.w3.org/2000/svg" width="32" height="32">
    <path style="stroke:none;fill-rule:evenodd;fill:#A1A3A8;fill-opacity:1" d="M13.465 2.727c-4.067.382-7.746 2.957-9.574 6.687a11.982 11.982 0 0 0 2.296 13.73c1.797 1.797 4.016 2.93 6.614 3.376.898.152 2.71.164 3.625.02.77-.126 1.527-.313 2.265-.567 1-.348 2.5-1.164 3.22-1.746l.234-.188 2.566 2.559c2.312 2.304 2.598 2.57 2.832 2.648.52.172 1.02.059 1.39-.312.372-.372.485-.872.313-1.391-.078-.234-.344-.52-2.648-2.832l-2.559-2.566.188-.235c.597-.734 1.394-2.21 1.761-3.27a13.94 13.94 0 0 0 .555-2.242c.133-.816.133-2.644 0-3.464-.219-1.344-.535-2.348-1.102-3.52-2.187-4.512-6.937-7.164-11.976-6.687m2.187 2.664c3.266.37 6.016 2.316 7.418 5.238a9.303 9.303 0 0 1-2.402 11.176 9.307 9.307 0 0 1-11.176.617C5.27 19.609 4.07 13.898 6.812 9.625c1.895-2.95 5.403-4.629 8.84-4.234"/>
</svg>
