<svg xmlns="http://www.w3.org/2000/svg" width="32" height="32">
    <path style="stroke:none;fill-rule:nonzero;fill:#000;fill-opacity:1" d="M21.602 30.398H8.8A2.402 2.402 0 0 1 6.398 28V13.11l-3.746 1.25a.8.8 0 0 1-1.011-.505l-1.598-4.8a.797.797 0 0 1 .398-.97l9.602-4.8a.808.808 0 0 1 .777.035.81.81 0 0 1 .38.68c0 2.207 1.796 4 4 4 2.206 0 4-1.793 4-4a.81.81 0 0 1 .378-.68.809.809 0 0 1 .777-.035l9.602 4.8c.355.18.527.59.402.97l-1.601 4.8a.797.797 0 0 1-1.012.504L24 13.11V28a2.401 2.401 0 0 1-2.398 2.398ZM7.199 11.2a.8.8 0 0 1 .8.8l.001 16.001c0 .441.36.8.8.8h12.802c.441 0 .796-.359.796-.8V12c0-.258.125-.5.336-.648a.8.8 0 0 1 .72-.114l4.042 1.348 1.125-3.383-7.957-3.976a5.604 5.604 0 0 1-5.46 4.37 5.605 5.605 0 0 1-5.466-4.37L1.781 9.203l1.13 3.383 4.038-1.348a.819.819 0 0 1 .254-.039Zm0 0"/>
</svg>
