<svg xmlns="http://www.w3.org/2000/svg" width="32" height="32">
    <path style="stroke:none;fill-rule:nonzero;fill:#000;fill-opacity:1" d="M25.332 12V9.332c0-2.2-1.797-4-4-4H10.668c-2.203 0-4 1.8-4 4V12c-2.203 0-4 1.8-4 4v6.668c0 2.2 1.797 4 4 4v2.664h2.664v-2.664h13.336v2.664h2.664v-2.664c2.203 0 4-1.8 4-4V16c0-2.2-1.797-4-4-4m-16-2.668c0-.73.602-1.332 1.336-1.332h10.664a1.34 1.34 0 0 1 1.336 1.332v3.707A3.979 3.979 0 0 0 21.332 16v2.668H10.668V16c0-1.172-.52-2.227-1.336-2.96V9.331m17.336 13.336A1.34 1.34 0 0 1 25.332 24H6.668a1.34 1.34 0 0 1-1.336-1.332V16c0-.734.602-1.332 1.336-1.332.73 0 1.332.598 1.332 1.332v5.332h16V16c0-.734.602-1.332 1.332-1.332.734 0 1.336.598 1.336 1.332Zm0 0"/>
</svg>
