<svg xmlns="http://www.w3.org/2000/svg" width="32" height="32">
    <path style="stroke:none;fill-rule:evenodd;fill:#000;fill-opacity:1" d="M20.246 1.39a9.624 9.624 0 0 0-3.074.926c-2.594 1.29-4.387 3.637-4.996 6.536-.125.593-.14.789-.145 1.761 0 1.172.063 1.707.317 2.578l.129.434-4.446 4.453c-2.441 2.453-4.515 4.563-4.601 4.695-.27.407-.477.852-.614 1.317-.171.594-.171 1.574 0 2.176a4.221 4.221 0 0 0 2.918 2.918c.551.156 1.575.171 2.106.027a5.47 5.47 0 0 0 1.375-.629c.137-.094 2.254-2.172 4.707-4.613l4.453-4.446.43.125c2.152.63 4.629.395 6.691-.632 4.328-2.153 6.281-7.23 4.52-11.758-.27-.696-.543-1.012-1-1.145-.36-.11-.446-.11-.805 0-.281.078-.395.184-2.918 2.703l-2.629 2.621-2.102-2.101 2.622-2.629c2.52-2.523 2.625-2.637 2.703-2.918.105-.36.11-.445.004-.797a1.446 1.446 0 0 0-.676-.812c-.32-.164-1.035-.414-1.582-.559a10.175 10.175 0 0 0-3.387-.23m1.746 2.648c.02.02-.777.852-1.77 1.852-1.03 1.035-1.867 1.921-1.949 2.058-.503.88-.492 1.973.024 2.797.223.356 2.5 2.645 2.894 2.91.829.559 1.957.586 2.848.074.152-.085.988-.875 2.078-1.96 1.45-1.442 1.832-1.797 1.863-1.723.06.156-.02 1.523-.109 1.953a6.476 6.476 0 0 1-1.836 3.367c-1.242 1.238-2.668 1.871-4.41 1.95-.996.046-1.824-.094-2.84-.489-.574-.223-.926-.242-1.293-.078-.183.086-1.332 1.2-5.066 4.93-4.696 4.687-4.832 4.82-5.114 4.902-.609.18-1.105.059-1.53-.363-.423-.426-.544-.922-.364-1.532.082-.28.215-.417 4.902-5.113 3.73-3.734 4.844-4.883 4.93-5.066.164-.367.145-.719-.078-1.293-.395-1.016-.535-1.844-.488-2.84.074-1.66.683-3.102 1.808-4.277 1.078-1.13 2.406-1.82 3.906-2.04.395-.054 1.543-.07 1.594-.019"/>
</svg>
