<svg xmlns="http://www.w3.org/2000/svg" width="32" height="32">
    <path style="stroke:none;fill-rule:nonzero;fill:#000;fill-opacity:1" d="M29.945 8a11.515 11.515 0 0 1-3.277.922 5.733 5.733 0 0 0 2.504-3.176 11.546 11.546 0 0 1-3.625 1.402C24.492 6 23.012 5.332 21.332 5.332c-3.133 0-5.691 2.563-5.691 5.723 0 .453.05.89.144 1.304A16.25 16.25 0 0 1 4 6.387a5.675 5.675 0 0 0-.773 2.867c0 1.984 1 3.746 2.546 4.746-.945 0-1.828-.266-2.601-.668v.043a5.73 5.73 0 0 0 4.59 5.613c-.48.133-.989.2-1.508.2-.36 0-.719-.04-1.066-.11.718 2.254 2.812 3.934 5.332 3.977-1.946 1.547-4.415 2.453-7.106 2.453-.453 0-.906-.028-1.36-.082A16.17 16.17 0 0 0 10.829 28c10.504 0 16.277-8.719 16.277-16.281 0-.254 0-.492-.011-.746A11.413 11.413 0 0 0 29.945 8Zm0 0"/>
</svg>
